<?xml version="1.0" standalone="no"?><!DOCTYPE svg PUBLIC "-//W3C//DTD SVG 1.1//EN" "http://www.w3.org/Graphics/SVG/1.1/DTD/svg11.dtd"><svg t="1764641776229" class="icon" viewBox="0 0 1024 1024" version="1.1" xmlns="http://www.w3.org/2000/svg" p-id="5462" xmlns:xlink="http://www.w3.org/1999/xlink" width="200" height="200"><path d="M927.6 402.2c-3.7-37.2 5.2-77.6 5.2-77.6L490 89.1l-61.9 78.4c-16-10.4-35-16.4-55.4-16.4-56.2 0-102 45.8-102 102 0 28.1 11.7 54.7 31.5 73.7l-13 16.5c-15.9-10.2-34.8-16.2-55.1-16.2-56.2 0-102 45.8-102 102 0 28.3 11.5 54.6 31.3 73.5l-47.2 59.7s14.5 38.7 17.3 71.2-7.2 69.3-7.2 69.3l443.8 236 374-473.5c-0.2 0.1-12.8-25.8-16.5-63.1zM503.4 152.9L866.5 346 545.2 752.7 182 559.6 286 428c0.5 8.8-1.9 17.5-5.6 24.8l44.5 22.8c7.3-14.3 11.2-30.3 11.2-46.4 0-17.6-4.5-34.3-12.4-48.8l101-127.9c0.2 8.6-2 17.4-6 24.9l44.2 23.4c7.7-14.6 11.8-31.1 11.8-47.7 0-17.5-4.4-34-12.3-48.4l41-51.8zM320.7 253.2c0-28.7 23.3-52 52-52 8.7 0 16.9 2.2 24.1 6l-63.3 80.2c-8.2-9.5-12.8-21.6-12.8-34.2z m-138.6 176c0-28.7 23.3-52 52-52 8.6 0 16.7 2.1 23.8 5.8l-63.3 80.1c-8-9.3-12.5-21.2-12.5-33.9z m-0.3 186.9L504 787.5c7.2 3.8 13.5 9.4 18.3 16.6 4.8 7.2 7.4 15.3 8.1 23.4l2.9 35.3-325-172.8c-7.8-4.1-14.5-10.3-19.4-18.4-4.9-8.1-7.1-17-7.1-25.8v-29.7z m400 227l-4.2-50.8 300.7-380.7 4.5 21c1.5 7 1.6 14.4-0.2 21.8-1.7 7.4-5 14.1-9.5 19.7l-291.3 369z" p-id="5463"></path><path d="M526.4 260.3l53.6 6.5-6.4 50.3c-0.9 6.8 4 13.1 10.8 14 0.5 0.1 1.1 0.1 1.6 0.1 6.2 0 11.6-4.6 12.4-10.9l8-62.8c0.4-3.3-0.5-6.6-2.5-9.3-2-2.6-5-4.3-8.4-4.7l-66.1-8.1c-6.8-0.8-13.1 4-13.9 10.9-0.8 7 4.1 13.2 10.9 14zM422.6 377.2c-1.5 3.1-1.6 6.8-0.4 10l16.9 43-53.5 12.8c-6.7 1.6-10.9 8.3-9.3 15.1 1.4 5.7 6.5 9.6 12.1 9.6 1 0 1.9-0.1 2.9-0.3l67.5-16.1c3.5-0.8 6.5-3.2 8.2-6.4 1.7-3.2 1.9-7 0.6-10.4l-17.2-43.9 50.3-15.5c6.6-2 10.3-9 8.3-15.6s-9-10.3-15.6-8.3l-63.1 19.5c-3.4 1-6.1 3.3-7.7 6.5zM617.2 391.9l58 33.9c2 1.2 4.2 1.7 6.3 1.7 4.1 0 8.2-2.1 10.6-5.8l32.2-50.8 50.2 28.1c6 3.4 13.6 1.2 17-4.8s1.2-13.6-4.8-17l-60.5-33.9c-5.8-3.3-13.1-1.4-16.7 4.2l-32 50.6-47.6-27.8c-6-3.5-13.6-1.5-17.1 4.5-3.5 6-1.5 13.6 4.4 17.1zM593.1 429.6c-6.9 0-12.5 5.6-12.5 12.5v52.2l-49.5 5.8c-6.9 0.8-11.8 7-10.9 13.9 0.8 6.4 6.1 11 12.4 11 0.5 0 1 0 1.5-0.1l60.5-7.2c6.3-0.7 11-6.1 11-12.4V442c0-6.8-5.6-12.4-12.5-12.4zM425.5 624.5l-41.8-23.6 27.8-41.1c1.9-2.8 2.6-6.4 1.8-9.7-0.7-3.4-2.8-6.3-5.8-8l-58.3-34.8c-5.9-3.5-13.6-1.6-17.1 4.3-3.5 5.9-1.6 13.6 4.3 17.1l46.9 28-28 41.4c-2 2.9-2.6 6.5-1.8 9.9 0.8 3.4 3 6.3 6 8l53.6 30.2c1.9 1.1 4 1.6 6.1 1.6 4.4 0 8.6-2.3 10.9-6.4 3.5-5.9 1.4-13.5-4.6-16.9zM590.8 587.4c-5.4-4.3-13.3-3.4-17.6 2.1l-30.9 39.1-40.2-22.3c-6-3.4-13.6-1.2-17 4.9-3.4 6-1.2 13.6 4.9 17l49.5 27.5c1.9 1.1 4 1.6 6.1 1.6 3.7 0 7.4-1.7 9.8-4.7l37.5-47.4c4.2-5.7 3.3-13.6-2.1-17.8z" p-id="5464"></path></svg>